<?xml version="1.0" encoding="UTF-8"?>
<svg width="36px" height="55px" viewBox="0 0 36 55" version="1.1" xmlns="http://www.w3.org/2000/svg" xmlns:xlink="http://www.w3.org/1999/xlink">
    <!-- Generator: Sketch 43.2 (39069) - http://www.bohemiancoding.com/sketch -->
    <title>restaurant</title>
    <desc>Created with Sketch.</desc>
    <defs></defs>
    <g id="Page-1" stroke="none" stroke-width="1" fill="none" fill-rule="evenodd">
        <g id="Artboard" transform="translate(-29.000000, -113.000000)" fill="#009688">
            <g id="restaurant" transform="translate(29.000000, 113.000000)">
                <path d="M2.18316032,26.5994585 C0.791035988,24.0443605 0,21.1145584 0,18 C0,8.0588745 8.0588745,0 18,0 C27.9411255,0 36,8.0588745 36,18 C36,21.1145584 35.208964,24.0443605 33.8168397,26.5994585 L33.8206421,26.6015259 L18,54.9 L2.17935791,26.6015259 L2.18316032,26.5994585 Z M13.36,19.84 L16.19,17.01 L9.17,10 C7.61,11.56 7.61,14.09 9.17,15.66 L13.36,19.84 L13.36,19.84 Z M20.18,17.3966567 C21.71,18.1066567 23.86,17.6066567 25.45,16.0166567 C27.36,14.1066567 27.73,11.3666567 26.26,9.89665669 C24.8,8.43665669 22.06,8.79665669 20.14,10.7066567 C18.55,12.2966567 18.05,14.4466567 18.76,15.9766567 L9,25.7366567 L10.41,27.1466567 L17.3,20.2766567 L24.18,27.1566567 L25.59,25.7466567 L18.71,18.8666567 L20.18,17.3966567 L20.18,17.3966567 Z" id="Oval-21"></path>
            </g>
        </g>
    </g>
</svg>